<svg width="24" height="24" viewBox="0 0 24 24" fill="none" xmlns="http://www.w3.org/2000/svg">
<rect width="24" height="24" rx="12" fill="#EEF5FE"/>
<path fill-rule="evenodd" clip-rule="evenodd" d="M12.5 7.96166C12.5 7.31639 11.6208 7.12595 11.3538 7.71338L9.10908 12.6517C8.92851 13.049 9.21892 13.5 9.6553 13.5H11.5V16.0383C11.5 16.6836 12.3792 16.874 12.6462 16.2866L14.8909 11.3483C15.0715 10.951 14.7811 10.5 14.3447 10.5H12.5V7.96166ZM10.2765 12.5L11.5 9.8083V10.9C11.5 11.2314 11.7686 11.5 12.1 11.5H13.7235L12.5 14.1917V13.1C12.5 12.7686 12.2314 12.5 11.9 12.5H10.2765Z" fill="#1F39C4"/>
</svg>
